<svg width="420" height="140" viewBox="0 0 420 140" fill="none" xmlns="http://www.w3.org/2000/svg" role="img" aria-labelledby="title desc">
  <title id="title">LeagueLore</title>
  <desc id="desc">LeagueLore shield logo with football and wordmark.</desc>
  <defs>
    <linearGradient id="shieldOuter" x1="210" y1="8" x2="210" y2="136" gradientUnits="userSpaceOnUse">
      <stop stop-color="#1E5DD6" />
      <stop offset="1" stop-color="#0A2F8D" />
    </linearGradient>
    <linearGradient id="shieldInner" x1="210" y1="24" x2="210" y2="128" gradientUnits="userSpaceOnUse">
      <stop stop-color="#123A95" />
      <stop offset="1" stop-color="#06265E" />
    </linearGradient>
    <linearGradient id="banner" x1="42" y1="74" x2="378" y2="124" gradientUnits="userSpaceOnUse">
      <stop stop-color="#042456" />
      <stop offset="1" stop-color="#0B3D9B" />
    </linearGradient>
    <linearGradient id="ball" x1="176" y1="40" x2="244" y2="80" gradientUnits="userSpaceOnUse">
      <stop stop-color="#A55024" />
      <stop offset="1" stop-color="#6F2F0F" />
    </linearGradient>
    <filter id="softShadow" x="0" y="0" width="420" height="140" filterUnits="userSpaceOnUse" color-interpolation-filters="sRGB">
      <feDropShadow dx="0" dy="2" stdDeviation="2" flood-opacity="0.25" />
    </filter>
  </defs>

  <g filter="url(#softShadow)">
    <path d="M210 8C255 46 321 55 370 56V110L210 136L50 110V56C99 55 165 46 210 8Z" fill="url(#shieldOuter)"/>
    <path d="M210 20C252 53 312 61 356 62V104L210 126L64 104V62C108 61 168 53 210 20Z" fill="url(#shieldInner)"/>

    <ellipse cx="210" cy="56" rx="84" ry="22" fill="url(#ball)" stroke="#3D1C0C" stroke-width="2"/>
    <rect x="165" y="50" width="90" height="8" rx="4" fill="#F4F0E9"/>
    <path d="M174 48V60M188 48V60M202 48V60M216 48V60M230 48V60M244 48V60" stroke="#D8D2C7" stroke-width="4" stroke-linecap="round"/>

    <path d="M42 74H378L372 124H48L42 74Z" fill="url(#banner)" stroke="#1A5AD0" stroke-width="2"/>
    <text x="210" y="109" text-anchor="middle" fill="#FFFFFF" font-family="Arial, Helvetica, sans-serif" font-size="44" font-weight="700" letter-spacing="0.5">LeagueLore</text>
  </g>
</svg>
